<?xml version="1.0" encoding="UTF-8"?>
<svg version="1.1" xmlns="http://www.w3.org/2000/svg" width="2000" height="1500">
<path d="M0 0 C660 0 1320 0 2000 0 C2000 495 2000 990 2000 1500 C1340 1500 680 1500 0 1500 C0 1005 0 510 0 0 Z " fill="#FEFEFE" transform="translate(0,0)"/>
<path d="M0 0 C222.88780853 0 222.88780853 0 257 8 C257.8760791 8.20383301 258.7521582 8.40766602 259.65478516 8.61767578 C283.65709294 14.30714572 306.39511042 23.40042786 325 40 C325.49967285 40.44456543 325.9993457 40.88913086 326.51416016 41.34716797 C349.01761082 61.74860701 360.14330375 92.12855056 362 122 C363.82778654 162.18685182 357.75843254 204.44180703 330.00390625 235.3984375 C318.56298369 247.66062319 305.70864948 255.39787922 290 261 C289.20335937 261.34933594 288.40671875 261.69867187 287.5859375 262.05859375 C284.04282702 263.34845723 280.45922692 263.93206485 276.75 264.5625 C271.99042248 264.99719538 271.99042248 264.99719538 268 267 C269.75763672 267.43699219 269.75763672 267.43699219 271.55078125 267.8828125 C289.05605212 272.38086302 303.1434818 279.51973355 313.37890625 295.1796875 C327.69697005 320.08966838 330.25844752 347.89506836 332.71484375 376.00390625 C334.10395959 404.05590823 334.10395959 404.05590823 347 428 C353.68125353 433.15695901 359.73824998 433.86036916 368 433 C370.29651857 432.60834567 372.52079129 432.14110414 374.76953125 431.53515625 C377.81725512 430.80391602 380.89726918 430.43075326 384 430 C384.22325199 435.8530184 384.38614011 441.70353786 384.49438477 447.55981445 C384.53952059 449.54951155 384.600849 451.53891215 384.67895508 453.52758789 C385.30959315 470.00249233 385.30959315 470.00249233 382.16088867 474.80517578 C379.83808857 476.66001249 377.73577874 477.85859746 375 479 C373.98292969 479.55171875 372.96585938 480.1034375 371.91796875 480.671875 C371.01691406 481.02765625 370.11585938 481.3834375 369.1875 481.75 C368.29417969 482.11609375 367.40085937 482.4821875 366.48046875 482.859375 C356.98239911 485.97209816 348.19777606 487.558234 338.1875 487.5 C337.05183594 487.49500488 335.91617187 487.49000977 334.74609375 487.48486328 C316.82052399 487.11397178 302.43222886 479.90734588 290 467 C280.17232399 455.54481077 275.14039469 443.685323 272 429 C271.82122314 428.195625 271.64244629 427.39125 271.45825195 426.5625 C269.70601336 417.61971568 269.68623324 408.73361275 269.59353638 399.65756226 C269.42766237 384.78615034 268.93047123 369.99918047 267.5625 355.1875 C267.47006516 354.17003693 267.47006516 354.17003693 267.37576294 353.13201904 C265.44247843 332.19563412 263.37299016 311.0186694 247.18359375 295.80859375 C237.40417143 287.70864289 225.53385915 283.63301891 213.3125 280.8125 C212.65572266 280.65765137 211.99894531 280.50280273 211.32226562 280.34326172 C194.14364628 276.64430409 176.78432265 276.72720327 159.3046875 276.8046875 C157.05932719 276.80763617 154.81396549 276.80967152 152.56860352 276.81079102 C144.33738108 276.82118291 136.10618827 276.84910495 127.875 276.875 C109.43625 276.91625 90.9975 276.9575 72 277 C72 343.99 72 410.98 72 480 C48.24 480 24.48 480 0 480 C0 321.6 0 163.2 0 0 Z " fill="#3B3B3B" transform="translate(1225,537)"/>
<path d="M0 0 C19.84125 -0.061875 39.6825 -0.12375 60.125 -0.1875 C66.32555176 -0.21481201 72.52610352 -0.24212402 78.91455078 -0.27026367 C86.65014648 -0.28381348 86.65014648 -0.28381348 90.30319214 -0.28633118 C92.78522367 -0.29085455 95.26724982 -0.30122509 97.74923706 -0.31672668 C180.90958387 -0.80887982 180.90958387 -0.80887982 207.78515625 24.79296875 C208.51605469 25.52128906 209.24695312 26.24960937 210 27 C210.57621094 27.55300781 211.15242188 28.10601563 211.74609375 28.67578125 C222.62967631 40.06820663 226.14436262 57.96610939 226.16796875 73.171875 C226.17129715 73.93493958 226.17462555 74.69800415 226.17805481 75.48419189 C226.18309011 77.09101769 226.18546419 78.69785382 226.18530273 80.3046875 C226.18748144 82.7293474 226.20565196 85.1535458 226.22460938 87.578125 C226.29544193 106.56173626 223.10460625 126.02221103 209.71484375 140.46484375 C197.00209962 152.5731785 180.51055367 158.35535572 163.5 161.25 C162.61932861 161.40098145 161.73865723 161.55196289 160.83129883 161.70751953 C139.61692799 164.98891232 118.29341934 165.2812126 96.875 165.1953125 C94.37760508 165.1923617 91.88020891 165.19032767 89.3828125 165.18920898 C80.25518913 165.17884178 71.12759246 165.15092023 62 165.125 C41.54 165.08375 21.08 165.0425 0 165 C0 110.55 0 56.1 0 0 Z " fill="#FEFEFE" transform="translate(1297,596)"/>
<path d="M0 0 C17.34116955 15.20188508 28.0170954 37.91626897 30.26611328 60.6953125 C31.99213357 87.08082596 23.4322995 111.15207053 6.4375 131.3046875 C-8.60557057 147.93885207 -30.28284416 160.62075469 -53.02246094 162.21142578 C-82.17116523 163.42125745 -106.76221552 156.27833568 -128.56933594 136.34472656 C-145.24509719 120.67064926 -156.18900636 97.14948157 -157.2578125 74.2734375 C-158.06102559 47.60079477 -149.72434982 24.05877167 -131.41015625 4.3671875 C-95.56553521 -32.64627987 -38.44813383 -33.25415199 0 0 Z " fill="#3A3A3A" transform="translate(522,1019)"/>
<path d="M0 0 C2.01866891 0.01612785 4.03534517 0.00003513 6.05395508 -0.01904297 C14.02272437 0.00449845 20.91442189 0.82063227 28.4543457 3.39111328 C29.15454834 3.61009277 29.85475098 3.82907227 30.57617188 4.0546875 C54.46790375 11.67837875 73.5071282 28.39105738 85.4543457 50.39111328 C96.36334332 71.7304227 99.23679214 96.3911136 91.82006836 119.35498047 C87.59088649 131.979672 82.06395148 143.14421068 73.4543457 153.39111328 C72.87168945 154.11943359 72.2890332 154.84775391 71.6887207 155.59814453 C57.87439167 172.16953503 36.63763635 183.25932435 15.3215332 186.07080078 C-4.88774427 187.74470053 -22.46058951 186.00243141 -40.5456543 176.39111328 C-41.53952148 175.87806641 -42.53338867 175.36501953 -43.55737305 174.83642578 C-67.80986822 161.58473561 -81.6804414 139.85201738 -89.58081055 114.00439453 C-95.31066739 91.4847246 -91.27242397 67.12800837 -79.6237793 47.18603516 C-79.26799805 46.59371094 -78.9122168 46.00138672 -78.5456543 45.39111328 C-78.20018555 44.81425781 -77.8547168 44.23740234 -77.4987793 43.64306641 C-63.75612028 21.25996693 -42.24670229 7.07182623 -16.8984375 0.9777832 C-11.27851116 -0.00559137 -5.69444327 -0.05398889 0 0 Z " fill="#3A3A3A" transform="translate(456.545654296875,310.60888671875)"/>
<path d="M0 0 C1.68511678 1.47924278 3.35298596 2.97844732 5 4.5 C5.76441406 5.17289063 6.52882813 5.84578125 7.31640625 6.5390625 C24.01443967 22.04645353 34.19666385 45.17374505 35.34375 67.81640625 C36.07899509 94.11028387 26.92348507 119.1354307 9 138.5 C-8.19843839 156.16562857 -31.56428486 166.25051364 -56.18359375 166.84375 C-79.64421842 167.08283917 -99.7172805 160.40439089 -118 145.5 C-119.27617188 144.46939453 -119.27617188 144.46939453 -120.578125 143.41796875 C-135.60953077 130.6228304 -144.76677217 113.2718213 -150 94.5 C-150.24621094 93.62601563 -150.49242187 92.75203125 -150.74609375 91.8515625 C-156.32838297 67.44348412 -149.73476893 42.81869862 -136.87109375 22.01171875 C-122.93042091 0.78897709 -101.75896986 -13.31983308 -77 -18.5 C-49.53763635 -23.4533343 -21.91441061 -17.39190759 0 0 Z " fill="#3A3A3A" transform="translate(828,672.5)"/>
<path d="M0 0 C1.68511678 1.47924278 3.35298596 2.97844732 5 4.5 C5.76441406 5.17289063 6.52882813 5.84578125 7.31640625 6.5390625 C24.01443967 22.04645353 34.19666385 45.17374505 35.34375 67.81640625 C36.07899509 94.11028387 26.92348507 119.1354307 9 138.5 C-8.19843839 156.16562857 -31.56428486 166.25051364 -56.18359375 166.84375 C-79.64421842 167.08283917 -99.7172805 160.40439089 -118 145.5 C-119.27617187 144.46939453 -119.27617187 144.46939453 -120.578125 143.41796875 C-135.60953077 130.6228304 -144.76677217 113.2718213 -150 94.5 C-150.24621094 93.62601563 -150.49242187 92.75203125 -150.74609375 91.8515625 C-156.32838297 67.44348412 -149.73476893 42.81869862 -136.87109375 22.01171875 C-122.93042091 0.78897709 -101.75896986 -13.31983308 -77 -18.5 C-49.53763635 -23.4533343 -21.91441061 -17.39190759 0 0 Z " fill="#3A3A3A" transform="translate(517,672.5)"/>
<path d="M0 0 C6.64985361 4.62505844 11.89207243 10.040064 14 18 C15.37093383 27.45762159 15.20346228 36.54577709 9.828125 44.734375 C3.69222805 52.33869173 -3.31317044 57.20218639 -13.17578125 58.37890625 C-22.60067823 58.72223387 -29.92718462 56.73728659 -37.3125 50.8125 C-43.91246382 44.6133437 -47.02727603 37.41819306 -47.34399414 28.46679688 C-47.48017575 19.27936349 -46.33645043 12.81455038 -39.98046875 5.7578125 C-28.871582 -4.86469568 -13.78625255 -8.24380642 0 0 Z " fill="#3B3B3B" transform="translate(786,1061)"/>
<path d="M0 0 C6.67109767 4.71128171 10.96817025 10.20079175 13.69921875 17.90625 C14.94259692 28.89502465 13.84765279 38.58841541 7.19921875 47.65625 C1.79907871 53.49947845 -6.89776676 57.38722026 -14.78125 58.14453125 C-24.31605475 58.40594725 -31.0707857 55.47911502 -38.51171875 49.609375 C-44.50379799 43.90512489 -47.48126248 36.41424219 -47.73217773 28.19702148 C-47.76183208 18.28179458 -45.85761146 11.51503865 -38.98828125 4.03125 C-28.20326321 -5.95313351 -12.6755271 -7.17546528 0 0 Z " fill="#3B3B3B" transform="translate(786.30078125,377.09375)"/>
</svg>
